<svg viewBox="0 0 224 20" fill="none" xmlns="http://www.w3.org/2000/svg">
<defs>
			<pattern id="diagonalHatch" patternUnits="userSpaceOnUse" width="4" height="4">
				<rect width="4" height="4" fill="#E17237"></rect>
				<path d="M-1,1 l2,-2
								 M0,4 l4,-4
								 M3,5 l2,-2" 
							style="stroke:#060E21; stroke-width:1" />
			</pattern>
		</defs>
<path d="M2.20211 24.7979L3.16364 23.8364C4.81286 22.1871 5.06873 19.6031 3.77497 17.6625C1.66937 14.5041 3.80603 10.255 7.59703 10.0618L202.181 0.143702C204.024 0.0497369 205.858 0.467866 207.478 1.35178L215.014 5.46232C215.669 5.81965 216.282 6.24918 216.842 6.7429L219.481 9.07147C222.356 11.6082 222.914 15.8791 220.787 19.0693C219.948 20.3282 219.5 21.8074 219.5 23.3204V23.8955C219.5 28.9945 215.499 33.1968 210.407 33.4472L12.8019 43.1655C8.69796 43.3673 4.88821 41.0382 3.19703 37.2934L0.863859 32.1271C-0.257783 29.6435 0.275129 26.7249 2.20211 24.7979Z" fill="url('#diagonalHatch')"/>
</svg>
